<svg width="54" height="43" fill="none" xmlns="http://www.w3.org/2000/svg"><path opacity=".5" d="M53.7 42.467a42 42 0 00-42-42v42h42z" fill="#F3B01A"/><path d="M17.43 42.467h-7.238V17.795l-5.658 5.76-4.13-4.333L11.11 8.467h6.321v34zm17.61-.114c7.986 0 13.244-4.415 13.244-11.458 0-6.697-5.01-10.715-10.616-10.715-3.026 0-5.704 1.19-7.291 2.778v-8.086H46.05v-6.2H23.333V27.67l4.91 1.29c1.985-1.885 4.217-2.679 6.945-2.679 3.77 0 5.953 1.985 5.953 4.911 0 2.679-2.233 4.911-6.151 4.911-3.473 0-6.548-1.29-8.78-3.621l-3.919 4.91c2.828 3.076 6.994 4.961 12.748 4.961z" fill="#2B2B6B"/></svg>