<svg width="41" height="29" fill="none" xmlns="http://www.w3.org/2000/svg"><path opacity=".8" d="M40.827 28.61a28.001 28.001 0 00-28-28v28h28z" fill="#fff"/><path d="M26.705 6.462a.763.763 0 00-1.293-.432l-1.077 1.078c-.576.576-1.58.576-2.155 0a1.522 1.522 0 010-2.154l1.077-1.077a.762.762 0 00-.431-1.293 4.584 4.584 0 00-3.878 1.292 4.589 4.589 0 00-1.183 4.416L6.503 19.553a4.608 4.608 0 00-4.415 1.184 4.598 4.598 0 00-1.293 3.877.763.763 0 001.293.432l1.077-1.078c.575-.576 1.579-.576 2.155 0a1.522 1.522 0 010 2.154L4.242 27.2a.762.762 0 00.432 1.293A4.551 4.551 0 008.55 27.2a4.589 4.589 0 001.183-4.415l11.262-11.262h.001a4.6 4.6 0 004.415-1.184 4.599 4.599 0 001.293-3.877z" fill="#2B2B6B"/><path d="M22.18 19.397c-.362 0-.733.054-1.169.17l-2.952-2.952-3.232 3.232 2.952 2.952c-.116.436-.17.808-.17 1.168 0 2.52 2.05 4.57 4.57 4.57 2.52 0 4.57-2.05 4.57-4.57 0-2.52-2.05-4.57-4.57-4.57zm2.498 4.418l-.453 1.69a.763.763 0 01-.538.538l-1.69.453a.76.76 0 01-.736-.197l-1.237-1.237a.76.76 0 01-.197-.736l.453-1.69a.763.763 0 01.539-.538l1.69-.453a.757.757 0 01.735.197l1.237 1.237a.761.761 0 01.197.736zM9.733 8.248A4.588 4.588 0 008.55 3.832c-1.727-1.725-4.739-1.725-6.464 0a4.576 4.576 0 000 6.464 4.592 4.592 0 004.416 1.183L9.44 14.46l3.232-3.231-2.94-2.981zM7.741 6.835l-.453 1.69a.763.763 0 01-.538.539l-1.69.453a.761.761 0 01-.736-.197L3.087 8.083a.76.76 0 01-.197-.736l.453-1.69a.763.763 0 01.538-.538l1.69-.453a.759.759 0 01.736.197L7.544 6.1a.76.76 0 01.197.735z" fill="#2B2B6B"/></svg>