<svg width="65" height="45" fill="none" xmlns="http://www.w3.org/2000/svg"><circle opacity=".5" cx="42.95" cy="22.467" r="22" fill="#BAC927"/><path d="M36.34 38.144a4.514 4.514 0 100-9.029 4.514 4.514 0 000 9.029z" fill="#2B2B6B"/><path d="M42.66 20.087h-4.815C36.04 11.961 28.215 6.544 20.09 8.35 14.07 9.554 9.256 14.068 8.052 20.087H5.945c-3.01 0-5.718 2.709-5.718 5.718v3.912c0 2.107 1.806 3.912 3.913 3.912h.902c0-3.912 3.31-7.222 7.223-7.222 3.912 0 7.223 3.31 7.223 7.222h9.63c0-3.912 3.31-7.222 7.223-7.222 3.912 0 7.222 3.31 7.222 7.222h.903c2.107 0 3.912-1.805 3.912-3.912v-3.611c0-3.31-2.708-6.019-5.718-6.019zm-29.793 0c1.505-5.718 7.523-8.727 12.94-7.223 3.31.903 6.02 3.612 7.223 7.223H12.867zm-.602 9.028c-2.407 0-4.514 2.107-4.514 4.514 0 2.408 2.107 4.515 4.514 4.515 2.408 0 4.514-2.107 4.514-4.515 0-2.407-2.106-4.514-4.514-4.514z" fill="#2B2B6B"/></svg>