<svg width="64" height="45" fill="none" xmlns="http://www.w3.org/2000/svg"><circle opacity=".5" cx="41.715" cy="22.012" r="22" fill="#337AB7"/><path d="M40.962 23.433c-.345-1.911-1.424-1.878-3-1.878-.222 0-.49.028-.791.082l-2.028-6.082c-.624-1.872-2.538-3.644-4.45-4.122l-.163-.041c-1.3-.325-3.23-.589-4.775-.67V7.298a.68.68 0 00-.679-.679h-9.504a.681.681 0 00-.68.679v3.488c-1.343.12-2.813.342-3.868.605l-.162.04c-1.914.478-3.828 2.25-4.452 4.123l-2.028 6.082a4.718 4.718 0 00-.787-.081c-1.578 0-2.659-.033-3.005 1.878-.43 2.374-.162 3.548 1.553 3.548l1.053.002a14.88 14.88 0 00-.071 1.36v8.601c0 1.5 1.215 2.715 2.715 2.715h2.716c1.5 0 2.716-1.215 2.716-2.715v-1.358H30.28v1.358c0 1.5 1.215 2.715 2.715 2.715h2.716c1.5 0 2.715-1.215 2.715-2.715v-9.958h-.07v-.003l1.054-.002c1.713 0 1.981-1.174 1.551-3.548zM9.921 31.06l-2.716-.004c-1.5 0-1.357-1.215-1.357-2.715 0-1.5 1.215-1.358 2.715-1.358 1.5 0 5.431 1.216 5.431 2.716 0 1.319-1.05 1.368-4.073 1.36zm-2.814-9.012l1.878-5.635c.326-.978 1.534-2.096 2.535-2.346l.161-.04c1.342-.335 3.64-.618 5.022-.618h8.146c1.382 0 3.681.283 5.02.618l.163.041c1 .25 2.209 1.369 2.535 2.347l1.876 5.628c-5.969 2.228-8.582 2.228-13.667 2.228-5.08 0-7.785 0-13.669-2.223zm27.247 9.009c-4.073 0-6.789.142-6.789-1.356 0-1.497 3.931-2.71 5.431-2.71s2.716-.142 2.716 1.355c0 1.498.142 2.71-1.358 2.71z" fill="#2B2B6B"/></svg>