<svg width="607" height="497" fill="none" xmlns="http://www.w3.org/2000/svg"><g filter="url(#filter0_d)"><path d="M80.611 139.856c-2.168-8.767 3.181-17.631 11.948-19.799l360.415-89.132c8.767-2.168 17.631 3.181 19.799 11.948l53.045 214.495c2.168 8.766-3.181 17.63-11.948 19.798l-360.415 89.132c-8.767 2.168-17.631-3.181-19.799-11.948L80.611 139.856z" fill="url(#paint0_linear)"/><mask id="a" maskUnits="userSpaceOnUse" x="80" y="30" width="447" height="337"><path d="M80.611 139.856c-2.168-8.767 3.181-17.631 11.948-19.799l360.415-89.132c8.767-2.168 17.631 3.181 19.799 11.948l53.045 214.495c2.168 8.766-3.181 17.63-11.948 19.798l-360.415 89.132c-8.767 2.168-17.631-3.181-19.799-11.948L80.611 139.856z" fill="url(#paint1_linear)"/></mask><g opacity=".05" fill="#fff" mask="url(#a)"><path d="M332.848 300.491c-57.968 14.336-119.556-24.499-134.464-84.782-14.908-60.283 21.479-123.348 79.448-137.683 58.978-14.586 119.297 23.45 134.464 84.782 15.168 61.332-20.469 123.097-79.448 137.683zm-68.24-275.938c-42.952 10.622-79.854 38.158-102.588 76.551-22.734 38.393-29.439 84.498-18.638 128.171 10.801 43.674 38.222 81.34 76.23 104.711 38.009 23.371 83.492 30.533 126.444 19.911 89.631-22.166 144.216-114.063 121.766-204.845-22.451-90.78-113.583-146.665-203.214-124.5z"/><path d="M450.836 164.694c-99.298-31.712-155.687 33.764-138.462 57.342 62.108-55.162 99.413 15.692 184.262-2.164 74.702-21.388 90.597-72.158 79.018-110.591-9.013-29.945-16.643 89.954-124.818 55.413z"/></g><g clip-path="url(#clip0)"><path d="M146.935 146.781l-.312.077c-1.611.399-2.141.959-2.438 2.618-.026.168-2.63 16.802-2.867 17.999a7.29 7.29 0 00-.09.595c-.185-.25-.356-.47-.443-.573-.607-.721-7.325-9.803-10.822-14.542-.931-1.106-1.67-1.56-3.35-1.144l-.312.077c-1.006.245-1.356.863-1.472 1.21-.214.627-.046 1.364.478 2.048.535.633 16.343 20.652 16.501 20.838.64.85 1.298.789 1.552.727.254-.063.862-.322 1.034-1.352.046-.253 4.707-25.198 4.939-26.39.074-.294.07-.604-.012-.897a1.749 1.749 0 00-.451-.774 2.125 2.125 0 00-.906-.505 2.08 2.08 0 00-1.031-.013m24.068-5.951l-.105.026a2.345 2.345 0 00-1.44 1.083 2.422 2.422 0 00-.261 1.804l3.358 13.583c1.264 5.109-1.703 7.768-4.637 8.493-2.933.726-6.799-.251-8.061-5.353l-3.359-13.582a2.42 2.42 0 00-1.074-1.476 2.334 2.334 0 00-1.781-.284l-.147.036a2.332 2.332 0 00-1.454 1.079 2.434 2.434 0 00-.267 1.813l3.411 13.793c2.053 8.3 8.502 9.842 13.854 8.518 2.585-.639 10.817-3.537 8.234-13.981l-3.411-13.793a2.416 2.416 0 00-1.076-1.476 2.343 2.343 0 00-1.784-.283zm17.434 5.232a25.048 25.048 0 01-.867-.157c-.87-.202-2.06-.598-2.333-1.7-.397-1.604.973-2.989 2.129-3.275 1.348-.333 1.748-.142 2.283.129l.192.094c.151.067.32.158.501.255.968.516 2.768 1.475 4.078-.058.879-.947.879-2.285.003-3.19-1.441-1.427-4.57-2.015-6.879-1.96-.823.014-2.309.369-3.607 1.015-.955.548-1.8 1.065-2.484 1.855a7.089 7.089 0 00-1.586 3.026 7.212 7.212 0 000 3.437c.767 3.103 2.949 4.308 4.542 4.956 1.213.456 2.388.566 3.631.682 1.165.071 2.32.258 3.451.557 2.97.906 3.999 1.689 4.233 3.223.284 1.771-1.064 4.245-3.227 4.78-2.092.517-3.796.148-5.536-1.2-.095-.072-.203-.172-.328-.286-.726-.659-2.428-2.203-4.384-.61-1.676 1.371-.768 3.083-.298 3.603 3.252 3.18 7.067 4.175 11.664 3.038 3.298-.816 5.736-2.777 6.867-5.527 1.168-2.835.732-6.198-1.111-8.573-2.027-2.587-8.057-3.625-10.95-4.124m29.298 7.451c-4.93 1.22-10.168-2.083-11.436-7.21-1.267-5.127 1.827-10.49 6.757-11.71 5.016-1.24 10.146 1.995 11.436 7.211 1.29 5.216-1.741 10.469-6.757 11.709zm-5.803-23.467a14.068 14.068 0 00-8.725 6.51 14.547 14.547 0 00-1.585 10.901 14.548 14.548 0 006.483 8.905 14.065 14.065 0 0010.753 1.693c7.623-1.885 12.266-9.7 10.356-17.421-1.909-7.721-9.66-12.473-17.282-10.588z" fill="#fff"/><path d="M227.752 141.954c-8.445-2.697-13.241 2.871-11.776 4.876 5.282-4.691 8.455 1.335 15.671-.184 6.353-1.819 7.705-6.136 6.72-9.405-.766-2.547-1.415 7.65-10.615 4.713z" fill="#F3B01A"/><path d="M243.647 133.992a2.927 2.927 0 01-1.418-1.938 2.823 2.823 0 01-.082-1.219 2.78 2.78 0 01.44-1.132 3.155 3.155 0 011.932-1.337 3.653 3.653 0 011.73-.024l.333 1.348a3.391 3.391 0 00-1.487.009 1.84 1.84 0 00-1.113.741 1.558 1.558 0 00-.216 1.252 1.578 1.578 0 00.774 1.007c.411.211.883.26 1.325.138a2.919 2.919 0 001.4-.749l.333 1.348a3.689 3.689 0 01-1.643.848 3.104 3.104 0 01-2.31-.287m6.476-.902l-1.058-4.28-1.724.426-.327-1.325 5.029-1.244.327 1.325-1.746.432 1.059 4.28-1.56.386zm4.909-4.958l.362 1.46a1.6 1.6 0 001.582.491 1.427 1.427 0 00.96-.715 1.744 1.744 0 00-.553-2.237 1.434 1.434 0 00-1.182-.181 1.582 1.582 0 00-.743.427c-.205.208-.35.469-.419.755h-.007zm3.335-2.278a3.13 3.13 0 011.266 1.915 3.167 3.167 0 01-.227 2.287 2.402 2.402 0 01-1.647 1.302 2.208 2.208 0 01-1.053.055 2.257 2.257 0 01-.964-.438l.724 2.93-1.557.385-1.942-7.852 1.557-.385.17.685c.273-.651.81-1.083 1.606-1.279.35-.097.718-.111 1.076-.043.358.069.697.218.991.438zm5.867 1.399a2.07 2.07 0 00-1.231-.042c-.663.164-1.017.537-.902.999.122.493.589.63 1.164.487.242-.044.469-.147.662-.3.193-.153.346-.352.447-.578l-.14-.566zm2.482.363l.286 1.157a1.355 1.355 0 01-.782.443c-.63.156-1.097.021-1.428-.411a2.595 2.595 0 01-1.711 1.23c-1.192.3-2.212-.235-2.491-1.363a1.652 1.652 0 01.301-1.53c.369-.431.867-.73 1.418-.852a3.441 3.441 0 011.678-.044l-.042-.169c-.175-.708-.748-.935-1.719-.695a3.279 3.279 0 00-1.553.886l-.329-1.33a4.378 4.378 0 011.932-.955c.784-.194 1.472-.162 2.046.115.286.133.537.332.733.582.196.25.332.543.395.856l.47 1.898c.069.281.24.394.492.332a.661.661 0 00.304-.148m1.379-4.921l1.493 1.3.728-1.849 1.721-.426-1.271 3.152 2.826 2.412-1.746.432-1.726-1.48-.85 2.117-1.723.426 1.388-3.442-2.586-2.21 1.746-.432zm8.676 2.491c.205-.043.398-.129.567-.253.17-.124.311-.284.416-.467a1.625 1.625 0 00.153-1.231 1.567 1.567 0 00-.706-1.004 1.609 1.609 0 00-1.206-.18 1.61 1.61 0 00-.983.721 1.567 1.567 0 00-.156 1.218 1.611 1.611 0 00.709 1.017 1.49 1.49 0 001.206.179zm-3.106-3.117a3.372 3.372 0 011.988-1.398c.811-.2 1.669-.09 2.41.311.345.199.645.469.883.792.237.323.406.692.497 1.083.106.392.13.801.072 1.202a2.912 2.912 0 01-.413 1.125 3.398 3.398 0 01-1.99 1.386 3.398 3.398 0 01-2.407-.298 2.923 2.923 0 01-.89-.804 2.969 2.969 0 01-.496-1.096 2.903 2.903 0 01.346-2.303zm8.882 1.82l1.326-.328c.542-.134.754-.412.651-.828-.103-.416-.42-.563-.962-.429l-1.326.328.311 1.257zm-.558-2.258l1.083-.268c.497-.123.7-.375.606-.754-.094-.38-.384-.51-.888-.385l-1.083.268.282 1.139zm-.702 3.75l-1.386-5.605 3.117-.771c1.148-.284 1.92.182 2.122 1 .078.24.083.498.015.74a1.25 1.25 0 01-.395.618c.756.075 1.23.471 1.405 1.178.235.949-.347 1.72-1.63 2.037l-3.248.803zm9.235-4.631a2.07 2.07 0 00-1.229-.043c-.663.164-1.017.538-.903.999.122.494.588.631 1.165.488a1.509 1.509 0 001.109-.879l-.142-.565zm2.482.363l.286 1.157a1.355 1.355 0 01-.782.443c-.63.156-1.097.021-1.428-.411a2.595 2.595 0 01-1.711 1.23c-1.193.295-2.217-.24-2.498-1.373a1.669 1.669 0 01-.042-.806c.053-.267.171-.516.344-.724a2.596 2.596 0 011.418-.852 3.413 3.413 0 011.677-.044l-.041-.169c-.176-.709-.749-.936-1.72-.695a3.286 3.286 0 00-1.553.885l-.328-1.329a4.354 4.354 0 011.931-.955c.785-.194 1.472-.163 2.046.115a2 2 0 01.734.582c.196.25.331.543.394.855l.47 1.899c.07.281.238.394.492.332a.665.665 0 00.305-.148m-47.065 24.351l-1.386-5.607 1.557-.385.506 2.047 1.395-2.517 1.912-.473-1.772 3.122 3.534 2.392-2.011.498-2.775-1.877.598 2.415-1.558.385zm8.593-3.437a1.477 1.477 0 00.983-.72 1.606 1.606 0 00.153-1.231 1.567 1.567 0 00-.706-1.006 1.609 1.609 0 00-1.206-.18 1.61 1.61 0 00-.983.721 1.57 1.57 0 00-.156 1.219 1.625 1.625 0 00.709 1.018 1.48 1.48 0 001.206.179zm-3.098-3.12a3.359 3.359 0 014.398-1.088 3.057 3.057 0 011.381 1.888 3.052 3.052 0 01-.342 2.314 3.402 3.402 0 01-1.991 1.387c-.809.2-1.665.093-2.407-.299a2.94 2.94 0 01-1.385-1.898 2.878 2.878 0 01.346-2.303m7.617 3.314l-1.387-5.607 1.537-.381 2.119 1.695 1.095-2.489 1.537-.38 1.386 5.607-1.469.363-.856-3.459-.94 2.08-.618.153-1.79-1.405.855 3.459-1.469.364zm7.815-1.933l-1.387-5.607 5.315-1.315 1.387 5.608-1.558.385-1.058-4.28-2.198.543 1.058 4.28-1.559.386zm9.611-4.726a2.063 2.063 0 00-1.229-.043c-.663.164-1.017.538-.902.999.122.494.587.63 1.164.488a1.509 1.509 0 001.109-.879l-.142-.565zm2.482.363l.286 1.157a1.355 1.355 0 01-.782.443c-.63.155-1.097.021-1.428-.411a2.606 2.606 0 01-.727.798 2.563 2.563 0 01-.984.431c-1.193.295-2.217-.239-2.497-1.373a1.644 1.644 0 01.303-1.52c.368-.431.864-.73 1.414-.853a3.44 3.44 0 011.678-.044l-.042-.169c-.175-.708-.749-.935-1.72-.695a3.278 3.278 0 00-1.552.885l-.329-1.329a4.369 4.369 0 011.939-.959c.784-.194 1.472-.162 2.045.115a2.02 2.02 0 011.129 1.438l.469 1.899c.07.281.239.394.493.331a.661.661 0 00.304-.148m1.406 1.029l-1.387-5.607 1.558-.385.514 2.079 2.265-.56-.514-2.08 1.557-.385 1.387 5.608-1.558.385-.544-2.203-2.266.56.545 2.203-1.557.385zm5.599-7.335l1.558-.385 1.386 5.607-1.557.385-1.387-5.607zm.176-2.621a.961.961 0 011.008.373.993.993 0 01.053 1.085.949.949 0 01-.966.457.965.965 0 01-.506-.246.999.999 0 01-.184-1.23.953.953 0 01.595-.439zm7.1 3.588l-.339-1.371-1.148.284c-.52.129-.768.452-.66.891.108.438.48.609.999.48l1.148-.284zm-3.213 3.978l.953-2.5c-.796-.089-1.297-.55-1.503-1.381-.258-1.045.267-1.999 1.714-2.357l2.962-.732 1.387 5.607-1.558.385-.458-1.853-.934.231-.813 2.168-1.75.432z" fill="#fff"/></g><path d="M170.175 329.875l1.291-3.08.444.279.552 2.235 1.373-.34-.553-2.235.263-.453 2.578 2.123 1.725-.427-3.533-2.788 1.919-3.513-1.699.42-1.65 3.03-.611-2.47-1.373.339.611 2.471-2.872-1.912-1.7.421 3.336 2.213-1.827 4.113 1.726-.426zm11.471-2.671c2.026-.501 2.883-2.308 2.434-4.125-.446-1.804-2.047-3.003-4.073-2.502-2 .494-2.87 2.305-2.424 4.109.449 1.817 2.063 3.013 4.063 2.518zm-.301-1.215c-1.163.287-2.059-.531-2.337-1.656-.275-1.111.136-2.253 1.3-2.541 1.176-.29 2.072.528 2.347 1.639.278 1.125-.133 2.267-1.31 2.558zm4.65 1.68l1.373-.34-.398-1.608 4.248-1.05.398 1.607 1.373-.339-.696-2.811-.692.172-1.264-5.111-4.876 1.205.38 3.166c.202 1.712-.021 2.1-.525 2.363l.679 2.746zm.979-7.373l2.287-.565.967 3.908-3.346.828c.347-.502.496-1.191.371-2.089l-.279-2.082zm8.117 3.417l-.649-2.628 2.902-.717.649 2.627 1.373-.339-1.561-6.314-1.373.339.614 2.484-2.902.718-.614-2.484-1.373.339 1.562 6.314 1.372-.339zm7.378-1.825l1.874-5.096 1.08 4.366 1.373-.34-1.562-6.314-1.372.34-1.852 4.966-1.05-4.248-1.373.339 1.561 6.314 1.321-.327zm7.429-1.837l1.875-5.097 1.08 4.366 1.372-.339-1.561-6.314-1.373.34-1.851 4.966-1.051-4.249-1.372.34 1.561 6.313 1.32-.326zm1.781-9.068l-.757-.368a2.057 2.057 0 01-1.447 1.273c-.719.178-1.378-.02-1.887-.449l-.498.678a2.972 2.972 0 002.585.582 2.91 2.91 0 002.004-1.716zm10.601 6.172c1.229-.303 1.844-1.011 2.14-1.722l-1.109-.613c-.233.571-.652.952-1.267 1.104-1.15.284-2.125-.404-2.429-1.633-.303-1.229.241-2.279 1.392-2.564.614-.151 1.159-.023 1.635.387l.695-1.06c-.593-.491-1.467-.83-2.696-.526-1.922.475-2.922 2.207-2.45 4.115.475 1.922 2.167 2.988 4.089 2.512zm6.106-1.676l-1.264-5.111 1.817-.45-.298-1.202-4.993 1.235.297 1.202 1.804-.446 1.264 5.111 1.373-.339zm6.378-1.411c1.634-.404 2.49-1.934 1.976-4.012-.514-2.079-1.981-3.02-3.615-2.615a2.593 2.593 0 00-1.774 1.52l-.213-.863-1.373.34 2.156 8.719 1.373-.339-.811-3.282c.677.554 1.484.729 2.281.532zm-.706-1.115c-.64.158-1.417-.066-1.831-.449l-.617-2.497c.184-.545.77-1.092 1.41-1.251 1.085-.268 1.995.437 2.296 1.652.303 1.229-.173 2.276-1.258 2.545zm7.78-.634c1.006-.249 1.857-.792 2.336-1.549l-.851-.747c-.335.555-1.005.984-1.62 1.136-1.189.294-2.102-.312-2.443-1.241l4.876-1.206-.081-.326c-.491-1.987-2.065-3.138-3.961-2.669-1.869.462-2.837 2.269-2.385 4.099.495 2 2.233 2.971 4.129 2.503zm.726-4.244l-3.556.879c-.125-.787.188-1.822 1.364-2.113 1.242-.307 1.981.495 2.192 1.234zm6.511 2.454c1.229-.304 1.844-1.011 2.14-1.722l-1.109-.614c-.233.571-.652.952-1.266 1.104-1.151.285-2.125-.404-2.429-1.633-.304-1.228.241-2.279 1.391-2.563.614-.152 1.159-.023 1.635.386l.695-1.059c-.593-.492-1.467-.83-2.696-.527-1.922.476-2.922 2.207-2.45 4.116.475 1.921 2.167 2.987 4.089 2.512zm6.106-1.677l-1.264-5.111 1.817-.449-.297-1.203-4.994 1.235.297 1.203 1.804-.446 1.264 5.111 1.373-.34zm5.829-1.275c2.026-.501 2.883-2.308 2.434-4.125-.446-1.804-2.047-3.003-4.073-2.502-2 .494-2.87 2.305-2.424 4.109.45 1.817 2.063 3.013 4.063 2.518zm-.3-1.215c-1.164.287-2.06-.531-2.338-1.656-.275-1.111.136-2.253 1.3-2.541 1.176-.29 2.072.528 2.347 1.639.278 1.125-.133 2.267-1.309 2.558zm8.774-1.047c1.229-.304 1.728-1.204 1.486-2.184-.185-.745-.853-1.26-1.572-1.249a1.5 1.5 0 00.704-1.699c-.223-.902-1.068-1.456-2.27-1.159l-3.778.934 1.561 6.314 3.869-.957zm-.585-1.131l-2.209.546-.352-1.425 2.209-.546c.51-.126.868.146.962.525.11.444-.126.78-.61.9zm-.689-2.618l-2.169.536-.317-1.281 2.17-.536c.444-.11.77.087.867.479.088.353-.106.692-.551.802zm6.206 2.53l1.875-5.097 1.079 4.366 1.373-.34-1.561-6.313-1.373.339-1.851 4.966-1.051-4.248-1.373.339 1.562 6.314 1.32-.326zm11.639-2.879l-3.129-2.666 1.424-3.612-1.543.381-.96 2.513-2.033-1.772-1.543.381 2.943 2.532-1.512 3.814 1.529-.378 1.072-2.734 2.209 1.923 1.543-.382zm7.227-1.621c1.229-.304 1.845-1.011 2.141-1.722l-1.109-.614c-.233.571-.652.952-1.267 1.104-1.15.285-2.125-.403-2.429-1.632-.304-1.229.241-2.279 1.391-2.564.615-.152 1.16-.023 1.636.387l.695-1.06c-.593-.492-1.468-.83-2.697-.526-1.921.475-2.922 2.207-2.45 4.115.476 1.922 2.168 2.987 4.089 2.512zm4.904-1.379l1.874-5.096 1.08 4.366 1.373-.34-1.562-6.314-1.372.34-1.852 4.966-1.05-4.249-1.373.34 1.562 6.314 1.32-.327zm8.632-2.135l-1.264-5.111 1.817-.449-.297-1.203-4.994 1.235.298 1.203 1.804-.446 1.264 5.111 1.372-.34zm3.277 1.812c.209.003.598-.051.794-.1.977-.255 1.652-.782 1.818-1.961l1.203-8.204-1.477.365-.673 5.188-3.014-4.276-1.464.362 4.17 5.752-.136.796c-.08.464-.335.666-.767.772a1.464 1.464 0 01-.548.025l.094 1.281zm11.467-5.458l-1.034-4.183c-.421-1.699-1.795-1.984-3.194-1.638-1.006.249-1.84.802-2.401 1.676l.798.815c.416-.671.966-1.085 1.672-1.259.876-.217 1.587.079 1.768.811l.233.941c-.59-.423-1.39-.516-2.24-.306-1.032.255-2.047 1.144-1.688 2.595.346 1.399 1.68 1.804 2.713 1.549.837-.207 1.494-.689 1.832-1.341l.168.68 1.373-.34zm-3.07-.073c-.771.191-1.456-.111-1.624-.791-.172-.693.294-1.28 1.065-1.47.601-.149 1.244-.072 1.665.281l.236.955c-.207.509-.74.876-1.342 1.025zm10.215.013l1.372-.34-.695-2.81-.693.171-1.264-5.111-1.372.339 1.264 5.111-2.902.718-1.264-5.111-1.373.339 1.562 6.314 4.967-1.228.398 1.608zm1.03-9.48a.874.874 0 10-.42-1.699.882.882 0 00-.64 1.06.883.883 0 001.06.639zm2.445 6.914l-1.561-6.314-1.373.339 1.561 6.314 1.373-.339zm3.101-.767l1.874-5.097 1.08 4.366 1.373-.339-1.562-6.314-1.372.34-1.852 4.966-1.05-4.249-1.373.34 1.562 6.314 1.32-.327zm1.78-9.068l-.757-.368a2.055 2.055 0 01-1.447 1.273 2.079 2.079 0 01-1.886-.449l-.498.678a2.97 2.97 0 002.585.582 2.908 2.908 0 002.003-1.716zm11.556 5.77c1.229-.304 1.727-1.204 1.485-2.184-.184-.746-.853-1.26-1.571-1.249.533-.312.891-.941.703-1.7-.223-.902-1.067-1.456-2.27-1.158l-3.778.934 1.562 6.314 3.869-.957zm-.585-1.132l-2.209.547-.353-1.425 2.21-.546c.509-.126.868.146.962.525.11.444-.126.78-.61.899zm-.689-2.617l-2.17.536-.317-1.281 2.17-.536c.445-.11.771.086.868.479.087.353-.107.692-.551.802zm7.987 3.795l1.372-.339-.397-1.608 4.248-1.051.398 1.608 1.372-.339-.695-2.811-.693.171-1.264-5.111-4.875 1.206.38 3.166c.202 1.712-.022 2.1-.525 2.363l.679 2.745zm.979-7.372l2.287-.566.967 3.909-3.347.827c.348-.502.497-1.19.371-2.089l-.278-2.081zm9.633 3.208c2.026-.501 2.883-2.308 2.434-4.125-.446-1.804-2.047-3.004-4.073-2.503-2 .495-2.87 2.305-2.424 4.109.449 1.817 2.063 3.013 4.063 2.519zm-.301-1.216c-1.163.288-2.059-.531-2.337-1.655-.275-1.111.136-2.253 1.3-2.541 1.176-.291 2.072.528 2.347 1.639.278 1.124-.133 2.266-1.31 2.557zm8.344-.773c1.634-.404 2.49-1.934 1.976-4.012-.514-2.079-1.981-3.02-3.615-2.616a2.594 2.594 0 00-1.774 1.521l-.214-.863-1.372.34 2.156 8.719 1.372-.34-.811-3.281c.678.554 1.484.729 2.282.532zm-.706-1.116c-.641.159-1.418-.065-1.831-.448l-.618-2.497c.184-.545.77-1.092 1.411-1.251 1.085-.268 1.994.436 2.295 1.652.304 1.229-.172 2.276-1.257 2.544zm7.714-.617c2.026-.501 2.883-2.308 2.434-4.125-.446-1.804-2.047-3.004-4.073-2.503-2 .495-2.87 2.305-2.424 4.109.449 1.817 2.063 3.013 4.063 2.519zm-.301-1.216c-1.163.288-2.059-.531-2.337-1.655-.275-1.111.136-2.253 1.299-2.541 1.177-.291 2.073.528 2.348 1.639.278 1.124-.133 2.266-1.31 2.557zm7.219-.495c1.856-.459 2.787-1.522 2.518-2.607-.245-.993-1.408-1.205-2.179-1.07.769-.315 1.512-1.067 1.299-1.93-.266-1.072-1.578-1.441-3.431-.969-1.15.285-1.935.923-2.385 1.686l.887.668c.384-.635.989-1.049 1.839-1.259.875-.216 1.597-.048 1.71.409.136.55-.398.973-1.339 1.205l-1.346.333.271 1.099 1.347-.333c.967-.24 1.715-.189 1.863.413.127.509-.365.991-1.332 1.231-.836.207-1.735.165-2.452-.212l-.424 1.034c.779.459 1.86.622 3.154.302zm3.253-8.489a.875.875 0 10-1.06-.64.882.882 0 001.06.64zm2.445 6.913l-1.562-6.313-1.372.339 1.561 6.314 1.373-.34z" opacity=".44" fill="#fff"/><path d="M148.122 248.545l-3.369-13.625c-.895-3.619.467-5.876 4.086-6.771l5.109-1.264c3.619-.895 5.876.467 6.772 4.087l3.369 13.624c.895 3.619-.467 5.876-4.086 6.771l-5.109 1.264c-3.62.895-5.877-.467-6.772-4.086zm3.06-.418c.398 1.609 1.401 2.214 3.009 1.816l5.18-1.281c1.609-.398 2.214-1.401 1.816-3.009l-3.527-14.264c-.398-1.608-1.401-2.214-3.009-1.816l-5.181 1.281c-1.608.398-2.213 1.401-1.816 3.01l3.528 14.263zm25.977-6.763l-.974-3.938c-.234-.946-.129-1.788.317-2.526l.934-1.549-1.549-.935c-.737-.445-1.223-1.14-1.457-2.087l-.641-2.59c-.895-3.619.467-5.876 4.086-6.771l5.11-1.263c3.619-.895 5.876.467 6.771 4.086l.641 2.59c.233.946.128 1.788-.317 2.526l-.935 1.548 1.549.935c.738.445 1.223 1.141 1.457 2.087l.974 3.939c.895 3.619-.467 5.876-4.086 6.771l-5.109 1.263c-3.619.895-5.876-.467-6.771-4.086zm3.059-.418c.398 1.609 1.401 2.214 3.01 1.816l5.18-1.281c1.608-.397 2.214-1.401 1.816-3.009l-.983-3.974c-.398-1.608-1.401-2.214-3.009-1.816l-5.18 1.281c-1.609.398-2.214 1.401-1.817 3.009l.983 3.974zm-2.843-11.496c.398 1.609 1.401 2.214 3.01 1.816l5.18-1.281c1.608-.397 2.214-1.401 1.816-3.009l-.684-2.768c-.398-1.608-1.401-2.213-3.01-1.816l-5.18 1.281c-1.609.398-2.214 1.401-1.816 3.01l.684 2.767zm20.296 6.841l-3.369-13.625c-.895-3.619.467-5.876 4.086-6.771l5.109-1.263c3.62-.895 5.877.467 6.772 4.086l3.369 13.625c.895 3.619-.467 5.876-4.086 6.771l-5.109 1.263c-3.619.895-5.877-.467-6.772-4.086zm3.06-.417c.398 1.608 1.401 2.213 3.009 1.816l5.181-1.281c1.608-.398 2.213-1.401 1.816-3.01l-3.528-14.263c-.398-1.609-1.401-2.214-3.009-1.816l-5.18 1.281c-1.609.397-2.214 1.401-1.817 3.009l3.528 14.264zm17.453-4.656l-3.369-13.624c-.895-3.619.467-5.877 4.086-6.772l5.109-1.263c3.619-.895 5.876.467 6.771 4.086l3.37 13.625c.895 3.619-.467 5.876-4.086 6.771l-5.11 1.264c-3.619.895-5.876-.467-6.771-4.087zm3.059-.417c.398 1.608 1.401 2.214 3.01 1.816l5.18-1.281c1.609-.398 2.214-1.401 1.816-3.01l-3.527-14.263c-.398-1.609-1.401-2.214-3.01-1.816l-5.18 1.281c-1.608.398-2.214 1.401-1.816 3.009l3.527 14.264zm26.658-2.489l-.36-1.455 10.929-2.702c1.608-.398 2.213-1.401 1.816-3.01l-1.071-4.328c-.398-1.609-1.401-2.214-3.009-1.816l-10.574 2.615-3.123-12.632 14.902-3.685.667 2.696-11.922 2.949 1.79 7.238 7.557-1.869c3.619-.895 5.877.467 6.772 4.086l.912 3.69c.895 3.619-.467 5.876-4.086 6.771l-9.296 2.299-1.904-.847zm19.832-9.347l-3.369-13.625c-.895-3.619.467-5.876 4.086-6.771l5.109-1.264c3.619-.895 5.876.467 6.771 4.086l3.37 13.625c.895 3.619-.467 5.876-4.086 6.771l-5.11 1.264c-3.619.895-5.876-.467-6.771-4.086zm3.06-.418c.397 1.609 1.4 2.214 3.009 1.816l5.18-1.281c1.609-.398 2.214-1.401 1.816-3.009l-3.527-14.264c-.398-1.608-1.401-2.214-3.01-1.816l-5.18 1.281c-1.608.398-2.214 1.401-1.816 3.01l3.528 14.263zm18.843-.556l-.36-1.455 10.219-2.527c1.608-.398 2.214-1.401 1.816-3.009l-.983-3.974c-.398-1.609-1.401-2.214-3.009-1.816l-7.593 1.878-.667-2.697 7.593-1.878c1.608-.397 2.214-1.401 1.816-3.009l-.685-2.768c-.397-1.608-1.4-2.213-3.009-1.816l-9.864 2.44-.359-1.455 1.289-1.637 8.232-2.036c3.619-.895 5.876.468 6.771 4.087l.64 2.59c.234.946.129 1.788-.316 2.525l-.935 1.549 1.549.935c.738.445 1.223 1.141 1.457 2.087l.974 3.938c.895 3.62-.467 5.877-4.086 6.772l-8.586 2.123-1.904-.847zm23.601-27.637l-.667-2.696 15.967-3.949 1.535 6.209-5.061 20.642-2.661.659-.566-.614 5.141-20.624-.702-2.838-12.986 3.211zm20.513-5.072l-.667-2.697 15.966-3.949 1.536 6.21-5.061 20.642-2.661.658-.566-.613 5.141-20.624-.702-2.839-12.986 3.212zm25.948 15.383l-.36-1.455 10.219-2.527c1.608-.398 2.213-1.401 1.816-3.01l-.983-3.974c-.398-1.608-1.401-2.213-3.01-1.816l-7.593 1.878-.666-2.696 7.593-1.878c1.608-.398 2.213-1.401 1.816-3.01l-.685-2.767c-.398-1.609-1.401-2.214-3.009-1.816l-9.864 2.439-.36-1.455 1.29-1.636 8.231-2.036c3.62-.895 5.877.467 6.772 4.086l.64 2.59c.234.946.129 1.788-.317 2.526l-.934 1.549 1.549.935c.737.445 1.223 1.14 1.457 2.087l.974 3.938c.895 3.619-.467 5.876-4.086 6.771l-8.587 2.124-1.903-.847z" fill="#DBB154"/><path d="M165.3 308.576l-.876-3.541 2.54-.628c2.151-.532 2.981-2.306 2.552-4.039-.432-1.748-1.974-2.92-4.141-2.385l-4.661 1.153 2.465 9.965 2.121-.525zm.918-5.966l-2.255.558-.665-2.689 2.255-.558c.837-.207 1.59.146 1.797.983.203.821-.295 1.499-1.132 1.706zm18.235 1.23l-3.179-3.241c1.012-.52 1.885-1.734 1.449-3.497-.458-1.853-2.064-2.898-4.141-2.385l-4.661 1.153 2.465 9.965 2.121-.525-.876-3.541 1.554-.384 2.833 3.057 2.435-.602zm-5.058-4.489l-2.226.551-.665-2.689 2.226-.551c.852-.21 1.62.139 1.827.975.207.837-.31 1.504-1.162 1.714zm17.526 1.405l-.462-1.867-4.93 1.219-.558-2.256 4.826-1.193-.462-1.868-4.826 1.194-.52-2.107 4.93-1.219-.462-1.867-7.052 1.743 2.465 9.965 7.051-1.744zm16.344-4.042l-2.464-9.964-2.988.739-.932 6.619-3.909-5.422-2.973.735 2.465 9.964 2.121-.524-1.725-6.977 4.534 6.282.926-.229 1.083-7.671 1.726 6.977 2.136-.529zm7.985-1.974l-2.465-9.965-2.121.525 2.464 9.964 2.122-.524zm10.403-2.383c3.033-.75 4.08-2.8 3.466-5.28l-1.478-5.976-2.166.536 1.463 5.916c.344 1.389-.212 2.541-1.75 2.922-1.539.38-2.582-.376-2.926-1.766l-1.463-5.916-2.151.532 1.481 5.991c.606 2.45 2.492 3.791 5.524 3.041zm21.101-5.409l-2.464-9.964-2.988.739-.931 6.619-3.909-5.422-2.973.735 2.464 9.965 2.121-.525-1.725-6.977 4.534 6.282.926-.229 1.084-7.671 1.725 6.977 2.136-.529zm22.863-5.653l-6.304-9.016-2.659.658-1.391 10.918 2.421-.599.21-1.843 4.272-1.057 1.03 1.537 2.421-.598zm-4.495-2.662l-3.108.769.494-4.672 2.614 3.903zm12.782.802c2.689-.665 3.649-2.361 3.198-4.183-.92-3.72-6.379-1.244-6.771-2.828-.148-.598.26-1.127 1.172-1.352 1.016-.251 2.176-.174 3.168.374l.796-1.846c-1.212-.667-2.645-.82-4.228-.428-2.346.58-3.44 2.309-3.03 3.967.927 3.75 6.365 1.121 6.801 2.884.14.568-.294 1.246-1.46 1.534a4.5 4.5 0 01-3.499-.561l-.752 1.898c1.159.712 2.693 1.014 4.605.541zm12.842-3.176c2.689-.665 3.649-2.36 3.198-4.183-.92-3.72-6.379-1.244-6.771-2.828-.148-.597.261-1.126 1.172-1.352 1.016-.251 2.176-.173 3.168.374l.796-1.846c-1.212-.667-2.644-.82-4.228-.428-2.346.58-3.44 2.309-3.03 3.967.928 3.75 6.365 1.121 6.801 2.884.14.568-.294 1.246-1.46 1.534a4.5 4.5 0 01-3.499-.561l-.752 1.898c1.159.712 2.693 1.014 4.605.541zm11.379-3.004l-2.465-9.964-2.121.524 2.464 9.965 2.122-.525zm9.447-2.146c2.689-.665 3.649-2.361 3.198-4.183-.92-3.72-6.379-1.245-6.771-2.828-.148-.598.261-1.127 1.172-1.352 1.016-.251 2.176-.174 3.168.374l.796-1.846c-1.212-.667-2.644-.82-4.228-.429-2.346.58-3.44 2.31-3.03 3.968.928 3.75 6.365 1.121 6.801 2.884.14.567-.294 1.246-1.46 1.534a4.496 4.496 0 01-3.499-.562l-.752 1.898c1.159.713 2.693 1.015 4.605.542zm13.505-3.53l-2.003-8.097 2.898-.717-.462-1.867-7.947 1.965.462 1.868 2.913-.721 2.002 8.098 2.137-.529zm16.471-4.073l-6.303-9.016-2.659.658-1.391 10.918 2.421-.599.21-1.843 4.272-1.057 1.03 1.537 2.42-.598zm-4.494-2.662l-3.108.769.494-4.672 2.614 3.903zm18.218-.732l-2.464-9.965-2.122.525 1.548 6.259-6.164-5.118-2.181.54 2.464 9.964 2.121-.524-1.607-6.499 6.358 5.324 2.047-.506zm10.719-2.461c2.196-.543 3.151-2.063 3.562-3.481l-2.041-.43c-.215.925-.956 1.774-1.987 2.029-1.808.447-3.466-.617-3.931-2.5-.466-1.882.505-3.597 2.313-4.044 1.031-.255 2.086.166 2.704.869l1.601-1.347c-1.009-1.066-2.575-1.947-4.771-1.404-2.988.739-4.786 3.403-4.029 6.466.758 3.062 3.591 4.581 6.579 3.842zm16.322-4.227l-.462-1.867-4.93 1.219-.558-2.256 4.826-1.193-.462-1.867-4.826 1.193-.521-2.107 4.93-1.219-.461-1.867-7.052 1.744 2.464 9.964 7.052-1.744z" fill="#fff"/></g><defs><linearGradient id="paint0_linear" x1="84.088" y1="123.596" x2="529.743" y2="272.204" gradientUnits="userSpaceOnUse"><stop stop-color="#303030"/><stop offset="1" stop-color="#212121"/></linearGradient><linearGradient id="paint1_linear" x1="84.088" y1="124.465" x2="524.698" y2="267.859" gradientUnits="userSpaceOnUse"><stop stop-color="#282828"/><stop offset="1" stop-color="#282828"/></linearGradient><clipPath id="clip0"><path fill="#fff" transform="rotate(-13.891 684.867 -433.937)" d="M0 0h171.209v28.855H0z"/></clipPath><filter id="filter0_d" x=".129" y=".443" width="606.171" height="496.337" filterUnits="userSpaceOnUse" color-interpolation-filters="sRGB"><feFlood flood-opacity="0" result="BackgroundImageFix"/><feColorMatrix in="SourceAlpha" values="0 0 0 0 0 0 0 0 0 0 0 0 0 0 0 0 0 0 127 0"/><feOffset dy="50"/><feGaussianBlur stdDeviation="40"/><feColorMatrix values="0 0 0 0 0.616667 0 0 0 0 0.442134 0 0 0 0 0.0513889 0 0 0 0.85 0"/><feBlend in2="BackgroundImageFix" result="effect1_dropShadow"/><feBlend in="SourceGraphic" in2="effect1_dropShadow" result="shape"/></filter></defs></svg>