<svg width="55" height="43" fill="none" xmlns="http://www.w3.org/2000/svg"><path opacity=".5" d="M11.357 21.486c0-11.807 9.572-21.38 21.38-21.38h21.38v21.38c0 11.808-9.572 21.38-21.38 21.38s-21.38-9.572-21.38-21.38z" fill="#F3B01A"/><path d="M37.457 37.16l-7.363-7.363 5.253-3.034a1.237 1.237 0 00-.16-2.22l-23.425-9.345a1.237 1.237 0 00-1.608 1.608l9.343 23.427a1.238 1.238 0 002.22.16l3.035-5.252 7.362 7.363a1.237 1.237 0 001.75 0l3.593-3.593a1.237 1.237 0 000-1.75zM6.254 9.548a1.238 1.238 0 00-1.75 1.75l2.75 2.75a1.233 1.233 0 001.75 0 1.237 1.237 0 000-1.75l-2.75-2.75zm.932 8.554c0-.683-.554-1.237-1.238-1.237H2.06a1.237 1.237 0 000 2.475h3.888c.684 0 1.238-.555 1.238-1.238zm-.502 3.818l-2.75 2.75a1.237 1.237 0 001.75 1.75l2.75-2.75a1.237 1.237 0 00-1.75-1.75zm6.373-9.69c.684 0 1.238-.554 1.238-1.238V7.104a1.237 1.237 0 00-2.475 0v3.889c0 .683.554 1.237 1.237 1.237zm4.693 1.61c.318 0 .634-.12.876-.362l2.749-2.75a1.238 1.238 0 00-1.75-1.75l-2.75 2.75a1.237 1.237 0 00.876 2.112z" fill="#2B2B6B"/></svg>