<svg width="42" height="34" fill="none" xmlns="http://www.w3.org/2000/svg"><path opacity=".5" d="M8.12 17.38C8.12 8.296 15.482.931 24.566.931h16.448V17.38c0 9.083-7.364 16.447-16.448 16.447S8.12 26.463 8.12 17.38z" fill="#F3B01A"/><path d="M28.198 29.437l-5.664-5.665 4.04-2.334a.952.952 0 00-.123-1.708l-18.02-7.19a.952.952 0 00-1.237 1.237L14.38 31.8a.952.952 0 001.709.123l2.334-4.04 5.664 5.664a.952.952 0 001.346 0l2.764-2.765a.952.952 0 000-1.346zM4.193 8.195a.952.952 0 00-1.346 1.346l2.115 2.115a.949.949 0 001.346 0 .952.952 0 000-1.346L4.193 8.195zm.717 6.58a.952.952 0 00-.952-.952H.968a.952.952 0 000 1.904h2.99a.952.952 0 00.952-.952zm-.386 2.937L2.41 19.828a.952.952 0 001.346 1.346l2.115-2.116a.952.952 0 00-1.346-1.346zm4.903-7.454a.952.952 0 00.952-.952V6.314a.952.952 0 00-1.903 0v2.992c0 .526.426.952.951.952zm3.611 1.24a.95.95 0 00.673-.28l2.115-2.114a.952.952 0 00-1.346-1.347l-2.115 2.116a.952.952 0 00.673 1.625z" fill="#2B2B6B"/></svg>