<svg width="66" height="45" fill="none" xmlns="http://www.w3.org/2000/svg"><circle opacity=".5" cx="43.308" cy="22.989" r="22" fill="#BAC927"/><path d="M36.7 38.666a4.514 4.514 0 100-9.028 4.514 4.514 0 000 9.028z" fill="#2B2B6B"/><path d="M43.02 20.61h-4.816c-1.806-8.126-9.63-13.543-17.756-11.738C14.43 10.076 9.614 14.59 8.411 20.61H6.304c-3.01 0-5.718 2.709-5.718 5.718v3.912c0 2.107 1.806 3.913 3.912 3.913h.903c0-3.913 3.31-7.223 7.223-7.223 3.912 0 7.222 3.31 7.222 7.223h9.63c0-3.913 3.311-7.223 7.223-7.223 3.913 0 7.223 3.31 7.223 7.223h.903c2.106 0 3.912-1.806 3.912-3.913v-3.61c0-3.311-2.708-6.02-5.718-6.02zm-29.794 0c1.504-5.719 7.523-8.728 12.94-7.223 3.31.902 6.02 3.61 7.223 7.222H13.226zm-.602 9.027c-2.408 0-4.514 2.107-4.514 4.515 0 2.407 2.106 4.514 4.514 4.514 2.407 0 4.514-2.107 4.514-4.514 0-2.408-2.107-4.515-4.514-4.515z" fill="#2B2B6B"/></svg>