<svg width="64" height="44" fill="none" xmlns="http://www.w3.org/2000/svg"><path opacity=".5" d="M20.242 21.92c0-11.808 9.572-21.38 21.38-21.38h21.38v21.38c0 11.808-9.572 21.38-21.38 21.38s-21.38-9.572-21.38-21.38z" fill="#337AB7"/><path d="M23.634 12.455h9.531v-.087l-9.531-9.011v9.098z" fill="#2B2B6B"/><path d="M21.901 15.834c-.953 0-1.733-.78-1.733-1.733V2.49H2.319c-.953 0-1.733.779-1.733 1.732v37.345c0 .953.78 1.732 1.733 1.732h29.72c.953 0 1.732-.78 1.732-1.732V15.834h-11.87zm2.86 19.495H9.51c-1.213 0-2.167-.78-2.167-1.733 0-.953.954-1.733 2.167-1.733h15.336c1.213 0 2.166.78 2.166 1.733 0 .953-1.04 1.733-2.253 1.733zm0-8.058H9.51c-1.213 0-2.167-.78-2.167-1.733 0-.953.954-1.733 2.167-1.733h15.336c1.213 0 2.166.78 2.166 1.733 0 .953-1.04 1.733-2.253 1.733z" fill="#2B2B6B"/></svg>