<svg width="42" height="30" fill="none" xmlns="http://www.w3.org/2000/svg"><path opacity=".8" d="M12.55 14.608C12.55 6.57 19.069.053 27.107.053h14.556v14.555c0 8.04-6.517 14.556-14.555 14.556-8.04 0-14.556-6.517-14.556-14.556z" fill="#fff"/><path d="M.935 25.793h2.717a5.05 5.05 0 009.526 0h8.994a5.05 5.05 0 009.526 0h2.717a.935.935 0 00.935-.935v-9.915a.935.935 0 00-.935-.935h-2.133l-2.941-7.356a1.683 1.683 0 00-1.562-1.057h-1.684V3.159a.935.935 0 00-.935-.936h-1.497a.935.935 0 00-.935.936V5.59h-5.05a1.683 1.683 0 00-1.684 1.684v4.354L5.397 1.035a1.684 1.684 0 00-2.872 1.188v6.734a1.683 1.683 0 103.367 0V6.292l7.717 7.716H.935a.935.935 0 00-.935.936v9.914a.935.935 0 00.935.935zm7.483 0a1.683 1.683 0 110-3.367 1.683 1.683 0 010 3.367zm18.519 0a1.684 1.684 0 110-3.367 1.684 1.684 0 010 3.367zM19.36 8.957h7.295l1.992 5.051H19.36v-5.05zM3.367 17.375h28.62v5.05h-.285a5.05 5.05 0 00-9.526 0H13.18a5.05 5.05 0 00-9.527 0h-.285v-5.05z" fill="#2B2B6B"/></svg>