<svg width="32" height="20" fill="none" xmlns="http://www.w3.org/2000/svg"><path opacity=".5" d="M12 10c0-5.523 4.478-10 10-10h10v10c0 5.523-4.477 10-10 10-5.522 0-10-4.477-10-10z" fill="#BAC927"/><path d="M23.08 10.969c-1.147-5.324-5.546-8.524-10.245-9.02V1.25c0-.691-.573-1.25-1.282-1.25-.71 0-1.282.559-1.282 1.25v.7C5.555 2.444 1.196 5.644.026 10.968c-.088.394.34.832.75.445C2.859 9.266 5.09 9.367 7.13 12.86c.212.371.597.336.789 0 .81-1.383 1.799-2.86 3.634-2.86 2.343 0 3.533 2.688 3.634 2.86.192.335.577.37.789 0 2.043-3.497 4.29-3.57 6.354-1.446.413.39.837-.05.75-.445zm-12.81.816v5.09a.635.635 0 01-.64.625.64.64 0 01-.605-.418 1.287 1.287 0 00-1.635-.762 1.24 1.24 0 00-.781 1.594c.449 1.246 1.667 2.082 3.02 2.082 1.768 0 3.206-1.402 3.206-3.125v-5.09c-.365-.308-.793-.531-1.282-.531-.493.004-.898.188-1.282.535z" fill="#2B2B6B"/></svg>