<svg width="48" height="43" fill="none" xmlns="http://www.w3.org/2000/svg"><path opacity=".5" d="M4.602 21.467c0-11.808 9.572-21.38 21.38-21.38h21.38v21.38c0 11.808-9.572 21.38-21.38 21.38s-21.38-9.572-21.38-21.38z" fill="#337AB7"/><path d="M23.07 13.84c-2.123-3.665-5.896-5.904-10.092-5.99-.179-.004-.36-.004-.538 0-4.196.086-7.969 2.325-10.093 5.99-2.171 3.748-2.23 8.248-.159 12.04l8.68 15.886.011.021a2.09 2.09 0 001.83 1.06 2.09 2.09 0 001.83-1.06l.012-.02L23.23 25.88c2.072-3.792 2.012-8.292-.16-12.04zm-10.36 9.868a4.927 4.927 0 01-4.922-4.922 4.927 4.927 0 014.922-4.922 4.928 4.928 0 014.922 4.922 4.927 4.927 0 01-4.922 4.922z" fill="#2B2B6B"/></svg>