<svg width="42" height="33" fill="none" xmlns="http://www.w3.org/2000/svg"><circle opacity=".8" cx="26.291" cy="17.503" r="15" fill="#fff"/><path d="M4.604 4.133v9.526a3.185 3.185 0 003.176 3.176h15.876a3.185 3.185 0 003.176-3.176V4.133A3.185 3.185 0 0023.656.958H7.78a3.185 3.185 0 00-3.176 3.175zm20.841 1.588H5.922V4.133h19.523v1.588zm5.832 14.449c-.317-.318-.794-.636-1.746-.795-.953-.158-6.033-.793-6.668-.952-.953-.159-2.064.317-3.493 1.27-.953.635-2.858 1.746-3.017 1.746.159.16.953.16.953.16h.158c1.747 0 3.017 1.428 3.017 3.016v.317c0 1.747-1.429 3.017-3.017 3.017H14.13c-2.857 0-5.557-2.858-5.557-2.858s3.335 1.27 5.557 1.27h3.176c.952 0 1.587-.794 1.587-1.588 0-.793-.635-1.587-1.429-1.587-3.016-.318-4.286-1.588-4.286-1.588s-2.7-2.064-3.652-2.54C6.192 17.153 0 21.122 0 21.122l4.128 9.05s2.064-1.27 4.922-.16c1.905.795 3.016 1.43 4.921 2.065 2.7.952 3.652.794 5.399-.476 1.587-1.112 9.208-7.145 10.32-7.939 1.587-1.429 2.381-2.54 1.587-3.493z" fill="#2B2B6B"/></svg>