<svg width="60" height="43" fill="none" xmlns="http://www.w3.org/2000/svg"><path opacity=".5" d="M59.333 42.335a42 42 0 00-42-42v42h42z" fill="#BAC927"/><path d="M12.523 18.254c.36-1.078 0-2.157-1.079-2.696-1.078-.539-2.336 0-2.695.899-.54.898-.18 1.977.719 2.516h2.336c.36-.18.539-.36.719-.719z" fill="#2B2B6B"/><path d="M4.436 18.973h.719l-.18-.72 2.516-5.75 1.438-.54c.18 0 .18.18.359.18 1.078.54 2.336 0 2.696-.898v-.36l1.437-.359 16.893 7.368.36 1.079h2.515c1.438 0 2.696.539 3.595 1.437 0-1.258-.72-2.516-1.977-3.055L10.726 6.752c-1.618-.719-3.594 0-4.313 1.618L1.2 20.05c.899-.718 1.977-1.078 3.235-1.078z" fill="#2B2B6B"/><path d="M20.79 16.816c-2.517-1.078-5.212 0-6.29 2.157h8.626a5.462 5.462 0 00-2.337-2.157zM.842 24.364v14.377a3.605 3.605 0 003.594 3.594H33.19a3.605 3.605 0 003.594-3.594V24.364a3.605 3.605 0 00-3.594-3.594H4.436a3.605 3.605 0 00-3.594 3.594zm33.066 10.603l-1.258 1.078h-.359c-1.258 0-2.336.899-2.336 2.157v.359l-1.258 1.078H8.749l-1.258-1.078v-.36c0-1.257-1.078-2.156-2.336-2.156h-.36l-1.257-1.078v-7.009l1.257-1.078h.36c1.258 0 2.336-.899 2.336-2.157v-.359l1.258-1.078h20.127l1.258 1.078v.36c0 1.257 1.079 2.156 2.337 2.156h.36l1.257 1.078v7.009h-.18zm-2.875-3.415c0 1.258-1.078 2.157-2.336 2.157-1.258 0-2.336-.899-2.336-2.157s1.078-2.156 2.336-2.156c1.258 0 2.336.898 2.336 2.156zm-6.65 0c0 2.696-2.335 5.032-5.39 5.032-3.055 0-5.392-2.156-5.392-5.032 0-2.875 2.336-5.032 5.391-5.032 3.056 0 5.392 2.337 5.392 5.032zm-13.118 0c0 1.258-1.078 2.157-2.336 2.157-1.258 0-2.336-.899-2.336-2.157s1.078-2.156 2.336-2.156c1.258 0 2.336.898 2.336 2.156z" fill="#2B2B6B"/></svg>