<svg width="55" height="43" fill="none" xmlns="http://www.w3.org/2000/svg"><path opacity=".5" d="M54.671 42.795a42 42 0 00-42-42v42h42z" fill="#337AB7"/><path d="M13.998 4.995l1.99 3.98h11.936l1.99-3.98H13.997zm1.99 5.968v3.98a5.968 5.968 0 1011.936 0v-3.98H15.987zm-12.932 3.98C.07 14.943.07 17.927.07 17.927v11.936a2.984 2.984 0 003.88 2.846l8.057-2.543v12.63L27.924 22.9H15.987s-.776 0-1.687.287l-8.26 2.606v-7.866s0-2.984-2.985-2.984zm27.936 9.505L15.987 42.795h15.916V26.88a3.9 3.9 0 00-.911-2.43z" fill="#2B2B6B"/></svg>