<svg width="55" height="45" fill="none" xmlns="http://www.w3.org/2000/svg"><circle opacity=".5" cx="32.336" cy="22.131" r="22" fill="#F3B01A"/><path d="M37.759 11.205a1.085 1.085 0 00-1.84-.614l-1.533 1.534c-.82.819-2.247.819-3.067 0a2.166 2.166 0 010-3.066l1.533-1.533a1.083 1.083 0 00-.614-1.84 6.523 6.523 0 00-5.517 1.84 6.53 6.53 0 00-1.684 6.283L9.01 29.835l-.001-.001a6.558 6.558 0 00-6.283 1.685 6.544 6.544 0 00-1.84 5.519 1.085 1.085 0 001.84.614l1.533-1.534c.82-.82 2.247-.82 3.067 0a2.166 2.166 0 010 3.065l-1.533 1.533a1.084 1.084 0 00.614 1.84 6.477 6.477 0 005.517-1.839 6.53 6.53 0 001.684-6.284l16.027-16.026.001.001a6.545 6.545 0 006.283-1.685 6.544 6.544 0 001.84-5.518z" fill="#2B2B6B"/><path d="M31.318 29.613c-.513 0-1.041.078-1.662.242l-4.201-4.2-4.6 4.598 4.2 4.201c-.163.622-.24 1.15-.24 1.663a6.51 6.51 0 006.503 6.504 6.51 6.51 0 006.504-6.504 6.51 6.51 0 00-6.504-6.503zm3.557 6.287l-.645 2.405c-.1.374-.392.666-.766.767l-2.405.644a1.083 1.083 0 01-1.047-.28l-1.76-1.76a1.083 1.083 0 01-.28-1.047l.644-2.405c.1-.374.393-.666.766-.767l2.405-.645a1.08 1.08 0 011.047.281l1.76 1.76c.275.275.382.674.281 1.047zM13.607 13.747a6.53 6.53 0 00-1.685-6.284c-2.457-2.456-6.743-2.456-9.198 0a6.512 6.512 0 000 9.198 6.535 6.535 0 006.284 1.684l4.183 4.243 4.599-4.599-4.183-4.242zm-2.835-2.01l-.645 2.405c-.1.373-.393.666-.766.766l-2.406.645a1.083 1.083 0 01-1.046-.28l-1.76-1.761a1.083 1.083 0 01-.281-1.047l.644-2.405c.101-.374.393-.666.767-.766l2.405-.645a1.08 1.08 0 011.047.28l1.76 1.76c.274.275.381.674.28 1.048z" fill="#2B2B6B"/></svg>