<svg width="42" height="30" fill="none" xmlns="http://www.w3.org/2000/svg"><path opacity=".8" d="M12.716 14.823C12.716 6.784 19.232.268 27.27.268h14.556v14.555c0 8.04-6.517 14.556-14.556 14.556-8.039 0-14.555-6.517-14.555-14.556z" fill="#fff"/><path d="M34.063 15.79c-.282-1.561-1.164-1.534-2.452-1.534-.18 0-.4.023-.646.066l-1.657-4.97c-.51-1.53-2.074-2.978-3.637-3.368l-.133-.034c-1.063-.266-2.64-.48-3.902-.548V2.605a.556.556 0 00-.555-.555h-7.767a.556.556 0 00-.555.555v2.85c-1.098.097-2.3.28-3.162.494l-.132.033c-1.564.39-3.128 1.839-3.638 3.369l-1.657 4.97a3.856 3.856 0 00-.644-.066c-1.29 0-2.172-.027-2.455 1.535-.352 1.94-.133 2.9 1.27 2.9.295 0 .58 0 .86.002-.038.399-.059.777-.059 1.111v7.028a2.22 2.22 0 002.22 2.219H7.58a2.22 2.22 0 002.22-2.22v-1.109h15.534v1.11a2.22 2.22 0 002.22 2.219h2.219a2.22 2.22 0 002.219-2.22v-8.137h-.058v-.002l.861-.002c1.4.001 1.62-.959 1.268-2.899zM8.696 22.022l-2.22-.003c-1.225 0-1.109-.993-1.109-2.219s.994-1.11 2.22-1.11c1.225 0 4.438.994 4.438 2.22 0 1.078-.858 1.118-3.33 1.112zm-2.3-7.364l1.535-4.605c.267-.8 1.254-1.714 2.072-1.918l.131-.033c1.097-.273 2.976-.504 4.104-.504h6.658c1.128 0 3.007.231 4.101.505l.134.033c.817.205 1.805 1.119 2.072 1.918l1.533 4.6c-4.878 1.82-7.014 1.82-11.17 1.82-4.15 0-6.361 0-11.17-1.816zm22.267 7.362c-3.329 0-5.548.116-5.548-1.108 0-1.224 3.213-2.215 4.438-2.215 1.226 0 2.22-.116 2.22 1.108 0 1.223.116 2.215-1.11 2.215z" fill="#2B2B6B"/></svg>