<svg width="60" height="43" fill="none" xmlns="http://www.w3.org/2000/svg"><path opacity=".5" d="M59.51 42.99a42 42 0 00-42-42v42h42z" fill="#BAC927"/><path d="M41.122 16.422v12.502a3.129 3.129 0 01-3.125 3.126h-.049c-.492 4.358-5.185 7.789-10.89 7.789v.025a3.129 3.129 0 01-3.126 3.125h-3.126a3.129 3.129 0 01-3.126-3.125v-3.126a3.129 3.129 0 013.126-3.126h3.126c1.716 0 3.11 1.563 3.124 3.126 3.94 0 7.176-2.052 7.707-4.687a3.135 3.135 0 01-3.017-3.127V16.422a3.12 3.12 0 012.911-3.104c-1.128-4.33-6.901-9.203-13.851-9.203-6.95 0-12.723 4.873-13.851 9.203a3.12 3.12 0 012.911 3.104v12.502a3.129 3.129 0 01-3.125 3.126H3.615A3.129 3.129 0 01.49 28.924V16.422a3.129 3.129 0 013.125-3.126h.155C4.848 7.246 12.069.99 20.806.99c8.738 0 15.958 6.258 17.036 12.307h.155a3.129 3.129 0 013.125 3.126z" fill="#2B2B6B"/></svg>